<svg xmlns="http://www.w3.org/2000/svg" xmlns:xlink="http://www.w3.org/1999/xlink" width="500" zoomAndPan="magnify" viewBox="0 0 375 374.999991" height="500" preserveAspectRatio="xMidYMid meet" version="1.0"><rect x="-37.5" width="450" fill="#ffffff" y="-37.499999" height="449.999989" fill-opacity="1"/><rect x="-37.5" width="450" fill="#ffffff" y="-37.499999" height="449.999989" fill-opacity="1"/><path fill="#000000" d="M 0 75.894531 C 0 51.238281 19.988281 31.25 44.644531 31.25 L 330.355469 31.25 C 355.011719 31.25 375 51.238281 375 75.894531 L 375 111.605469 C 375 116.539062 371 120.535156 366.070312 120.535156 L 8.929688 120.535156 C 3.996094 120.535156 0 116.539062 0 111.605469 Z M 44.644531 49.105469 C 29.847656 49.105469 17.855469 61.097656 17.855469 75.894531 L 17.855469 102.679688 L 357.144531 102.679688 L 357.144531 75.894531 C 357.144531 61.097656 345.148438 49.105469 330.355469 49.105469 Z M 44.644531 49.105469 " fill-opacity="1" fill-rule="evenodd"/><path fill="#000000" d="M 0 111.605469 C 0 106.675781 3.996094 102.679688 8.929688 102.679688 L 366.070312 102.679688 C 371 102.679688 375 106.675781 375 111.605469 L 375 147.320312 L 357.144531 147.320312 L 357.144531 120.535156 L 17.855469 120.535156 L 17.855469 325.894531 C 17.855469 340.6875 29.847656 352.679688 44.644531 352.679688 L 151.785156 352.679688 L 151.785156 370.535156 L 44.644531 370.535156 C 19.988281 370.535156 0 350.546875 0 325.894531 Z M 0 111.605469 " fill-opacity="1" fill-rule="evenodd"/><path fill="#000000" d="M 178.570312 4.464844 L 196.429688 4.464844 L 196.429688 58.035156 L 178.570312 58.035156 Z M 178.570312 4.464844 " fill-opacity="1" fill-rule="evenodd"/><path fill="#000000" d="M 267.855469 4.464844 L 285.714844 4.464844 L 285.714844 58.035156 L 267.855469 58.035156 Z M 267.855469 4.464844 " fill-opacity="1" fill-rule="evenodd"/><path fill="#000000" d="M 89.285156 4.464844 L 107.144531 4.464844 L 107.144531 58.035156 L 89.285156 58.035156 Z M 89.285156 4.464844 " fill-opacity="1" fill-rule="evenodd"/><path fill="#000000" d="M 232.144531 218.75 C 232.144531 213.820312 236.140625 209.820312 241.070312 209.820312 L 330.355469 209.820312 C 335.289062 209.820312 339.285156 213.820312 339.285156 218.75 L 339.285156 238.65625 C 339.285156 244.335938 338.203125 249.964844 336.09375 255.238281 L 320.789062 293.496094 C 319.433594 296.882812 316.152344 299.105469 312.5 299.105469 L 258.929688 299.105469 C 255.277344 299.105469 251.996094 296.882812 250.640625 293.496094 L 235.335938 255.238281 C 233.226562 249.964844 232.144531 244.335938 232.144531 238.65625 Z M 250 227.679688 L 250 238.65625 C 250 242.066406 250.648438 245.441406 251.917969 248.605469 L 264.972656 281.25 L 306.457031 281.25 L 319.511719 248.605469 C 320.777344 245.441406 321.429688 242.066406 321.429688 238.65625 L 321.429688 227.679688 Z M 250 227.679688 " fill-opacity="1" fill-rule="evenodd"/><path fill="#000000" d="M 232.144531 361.605469 C 232.144531 366.539062 236.140625 370.535156 241.070312 370.535156 L 330.355469 370.535156 C 335.289062 370.535156 339.285156 366.539062 339.285156 361.605469 L 339.285156 341.699219 C 339.285156 336.019531 338.203125 330.394531 336.09375 325.121094 L 320.789062 286.863281 C 319.433594 283.472656 316.152344 281.25 312.5 281.25 L 258.929688 281.25 C 255.277344 281.25 251.996094 283.472656 250.640625 286.863281 L 235.335938 325.121094 C 233.226562 330.394531 232.144531 336.019531 232.144531 341.699219 Z M 250 352.679688 L 250 341.699219 C 250 338.292969 250.648438 334.917969 251.917969 331.75 L 264.972656 299.105469 L 306.457031 299.105469 L 319.511719 331.75 C 320.777344 334.917969 321.429688 338.292969 321.429688 341.699219 L 321.429688 352.679688 Z M 250 352.679688 " fill-opacity="1" fill-rule="evenodd"/><path fill="#000000" d="M 205.355469 209.820312 L 366.070312 209.820312 L 366.070312 227.679688 L 205.355469 227.679688 Z M 205.355469 209.820312 " fill-opacity="1" fill-rule="evenodd"/><path fill="#000000" d="M 205.355469 352.679688 L 366.070312 352.679688 L 366.070312 370.535156 L 205.355469 370.535156 Z M 205.355469 352.679688 " fill-opacity="1" fill-rule="evenodd"/></svg>