<svg xmlns="http://www.w3.org/2000/svg" xmlns:xlink="http://www.w3.org/1999/xlink" width="500" zoomAndPan="magnify" viewBox="0 0 375 374.999991" height="500" preserveAspectRatio="xMidYMid meet" version="1.0"><path fill="#000000" d="M 369.699219 110.742188 L 341.371094 82.414062 C 338.777344 79.820312 338.777344 75.632812 341.371094 73.039062 C 352.203125 62.65625 352.21875 43.964844 341.371094 33.671875 C 331.050781 22.785156 312.34375 22.851562 302.003906 33.671875 C 299.542969 36.132812 295.089844 36.132812 292.628906 33.671875 C 292.628906 33.671875 264.300781 5.34375 264.300781 5.34375 C 259.113281 0.0898438 250.136719 0.15625 244.949219 5.34375 L 216.621094 33.605469 C 214.027344 36.199219 209.835938 36.199219 207.242188 33.605469 C 196.335938 22.765625 178.714844 22.765625 167.808594 33.605469 C 156.96875 44.511719 156.96875 62.132812 167.808594 73.039062 C 170.515625 75.726562 170.359375 80.132812 167.542969 82.679688 C 167.542969 82.679688 139.546875 110.742188 139.546875 110.742188 C 134.167969 115.777344 134.203125 125.007812 139.546875 130.09375 C 139.546875 130.09375 163.488281 154.035156 163.488281 154.035156 C 179.578125 142.53125 202.1875 143.992188 216.621094 158.355469 C 231.050781 172.851562 232.511719 195.464844 220.941406 211.554688 L 244.949219 235.496094 C 250.269531 240.882812 258.980469 240.882812 264.300781 235.496094 L 288.304688 211.554688 C 276.519531 195.84375 278.417969 172.046875 292.628906 158.355469 C 307.058594 143.992188 329.667969 142.53125 345.695312 154.035156 L 369.699219 130.09375 C 374.972656 124.992188 375.015625 115.835938 369.699219 110.742188 Z M 369.699219 110.742188 " fill-opacity="1" fill-rule="nonzero"/><path d="M 207.175781 216.675781 C 204.53125 214.070312 204.632812 209.734375 207.242188 207.234375 C 232.390625 180.308594 194.75 142.625 167.808594 167.800781 C 165.214844 170.394531 161.027344 170.394531 158.367188 167.800781 L 130.105469 139.472656 C 124.984375 134.351562 115.875 134.351562 110.753906 139.472656 L 86.746094 163.476562 C 113.550781 201.597656 67.054688 247.359375 29.359375 220.933594 C 29.359375 220.933594 5.351562 244.9375 5.351562 244.9375 C -0.0234375 250.046875 0 259.171875 5.351562 264.289062 C 5.351562 264.289062 8.144531 267.148438 8.144531 267.148438 C 8.210938 267.214844 8.210938 267.28125 8.277344 267.28125 C 8.222656 267.332031 29.289062 288.152344 29.292969 288.230469 C 44.996094 276.566406 68.816406 278.359375 82.425781 292.617188 C 96.660156 306.242188 98.492188 330.011719 86.8125 345.683594 C 86.8125 345.683594 110.753906 369.625 110.753906 369.625 C 115.941406 374.878906 124.917969 374.878906 130.105469 369.691406 L 158.367188 341.363281 C 161.027344 338.769531 165.214844 338.769531 167.808594 341.363281 C 178.648438 352.269531 196.402344 352.269531 207.242188 341.363281 C 218.082031 330.523438 218.082031 312.902344 207.242188 301.996094 C 204.648438 299.402344 204.648438 295.210938 207.242188 292.617188 L 235.503906 264.355469 C 238.03125 261.761719 239.496094 258.304688 239.496094 254.648438 C 239.496094 250.988281 238.03125 247.597656 235.503906 245.003906 Z M 207.175781 216.675781 " fill-opacity="1" fill-rule="nonzero"/></svg>