<svg xmlns="http://www.w3.org/2000/svg" xmlns:xlink="http://www.w3.org/1999/xlink" width="500" zoomAndPan="magnify" viewBox="0 0 375 374.999991" height="500" preserveAspectRatio="xMidYMid meet" version="1.0"><path fill="#000000" d="M 328.125 46.875 C 328.125 33.75 317.8125 23.4375 304.6875 23.4375 L 257.8125 23.4375 L 257.8125 11.71875 C 257.8125 5.25 252.5625 0 246.09375 0 L 222.65625 0 C 216.1875 0 210.9375 5.25 210.9375 11.71875 L 210.9375 23.4375 L 117.1875 23.4375 L 117.1875 11.71875 C 117.1875 5.25 111.9375 0 105.46875 0 L 82.03125 0 C 75.5625 0 70.3125 5.25 70.3125 11.71875 L 70.3125 23.4375 L 23.4375 23.4375 C 10.3125 23.4375 0 33.75 0 46.875 L 0 117.1875 L 328.125 117.1875 Z M 328.125 46.875 " fill-opacity="1" fill-rule="nonzero"/><path fill="#000000" d="M 269.53125 140.625 L 0 140.625 L 0 304.6875 C 0 317.8125 10.3125 328.125 23.4375 328.125 L 154.804688 328.125 C 145.804688 310.523438 140.625 290.648438 140.625 269.53125 C 140.625 198.328125 198.328125 140.625 269.53125 140.625 Z M 269.53125 140.625 " fill-opacity="1" fill-rule="nonzero"/><path fill="#000000" d="M 269.53125 164.0625 C 211.289062 164.0625 164.0625 211.289062 164.0625 269.53125 C 164.0625 327.773438 211.289062 375 269.53125 375 C 327.773438 375 375 327.773438 375 269.53125 C 375 211.289062 327.773438 164.0625 269.53125 164.0625 Z M 316.40625 281.25 L 269.53125 281.25 C 263.0625 281.25 257.8125 276 257.8125 269.53125 L 257.8125 222.65625 C 257.8125 216.1875 263.0625 210.9375 269.53125 210.9375 C 276 210.9375 281.25 216.1875 281.25 222.65625 L 281.25 257.8125 L 316.40625 257.8125 C 322.875 257.8125 328.125 263.0625 328.125 269.53125 C 328.125 276 322.875 281.25 316.40625 281.25 Z M 316.40625 281.25 " fill-opacity="1" fill-rule="nonzero"/></svg>