<svg xmlns="http://www.w3.org/2000/svg" xmlns:xlink="http://www.w3.org/1999/xlink" width="500" zoomAndPan="magnify" viewBox="0 0 375 374.999991" height="500" preserveAspectRatio="xMidYMid meet" version="1.0"><path fill="#000000" d="M 366.203125 170.417969 L 206.007812 10.222656 C 196.183594 0.398438 180.242188 0.398438 170.402344 10.222656 L 10.222656 170.417969 C 0.398438 180.242188 0.398438 196.183594 10.222656 206.023438 L 170.417969 366.214844 C 180.242188 376.039062 196.183594 376.039062 206.023438 366.214844 L 366.214844 206.023438 C 376.027344 196.183594 376.027344 180.242188 366.203125 170.417969 Z M 205.496094 88.402344 L 202.640625 216.730469 L 173.785156 216.730469 L 170.929688 88.402344 Z M 188.253906 290.71875 C 176.449219 290.71875 169.390625 284.429688 169.390625 273.863281 C 169.390625 263.097656 176.433594 256.8125 188.253906 256.8125 C 199.976562 256.8125 207.019531 263.097656 207.019531 273.863281 C 207.019531 284.429688 199.976562 290.71875 188.253906 290.71875 Z M 188.253906 290.71875 " fill-opacity="1" fill-rule="nonzero"/></svg>